/* XPM */
static char *ebe6d50f27ee41f9d6cb72fbb78125bdqu3DkmfcInLhsDFf[] = {
/* columns rows colors chars-per-pixel */
"32 32 12 1 ",
"  c #406E6C",
". c #5CB569",
"X c #E9E9E9",
"o c #17111A",
"O c #FF80AA",
"+ c #EB5665",
"@ c #FF94B8",
"# c #DE688E",
"$ c #F77090",
"% c #F887A2",
"& c #E380A0",
"* c white",
/* pixels */
"                                ",
" ..XXX.. ..           . ...XX.. ",
" .XXX..                  .X.XX. ",
" XX                          XX ",
" X.                          XX ",
" XX         oooooooo         .X ",
" X.       ooO+@#O$@+oo        . ",
" ..     ooOOO+@@#$@+O#oo     .  ",
"  .    oO$@+OO++#O@+O#OOo       ",
" .    o@O$O@+OO#@@+O+O#OOo      ",
"     o++@O$@+##@++O#O+O#O+o     ",
" .  o$OO+O@+OOO+OO@O#+#O+OOo    ",
"    o@$OO@@+OO+O#O+@OO++O$Oo    ",
"   oO+@%%++O#O+O#OO+@O#OOO$$o   ",
"  .oOO+++#O$O#O+OO$O+#OO+OOOo   ",
"  .o$$OO#OOO$$OO+OO$+#O+O+OOo   ",
"   oOO#&+OO$@@$OO$$@+O#+OO+o  . ",
"    o#@+OO$@++@OOOO+OO+O#OOo .  ",
"    o@+OO$O+OO+O@+@O+ooOO#o     ",
"     o+O@%OOO@+@+O+Oo  ooo    . ",
"     oO@++@@@+O@+O+Oo        .  ",
" .    o+O#+++O@+OOOo          . ",
" .    oO#O$OO@+OOOo          .. ",
"  .    oOO$Ooo+OOo         . X. ",
" .X     oooo oOOo             X ",
" ..         oOOo           . .. ",
" .X        oOOo            . .X ",
" X.         oo          . .X XX ",
" XX                          XX ",
" .XX..               ..  .XXXX. ",
" ..XXX..               X.X..X.. ",
"                                "
};
