/* XPM */
static char *d3b4aa2bf09e4b7ef5584a93d11cbf6e0M72oUalB4ioeS3j[] = {
/* columns rows colors chars-per-pixel */
"32 32 7 1 ",
"  c None",
". c #262B44",
"X c #3A4466",
"o c #5A6988",
"O c #8B9BB4",
"+ c #C0CBDC",
"@ c white",
/* pixels */
"            oooooooo            ",
"         oooXXoXXoooooo         ",
"       ooooXXXXXXXoXXXXoo       ",
"      oXX.XXXXXXX..XXXXXXo      ",
"     oXXXo..X.......XXXXXXo     ",
"     oXXXX...oooooo...XXXXo     ",
"    oXXXX..    OO    ....XXX    ",
"    oXXXX.o    ++    O..XXXX    ",
"   ooXX..oO+++++++++++O.XXXXX   ",
"   ooX...O+OOOO++OOOO++.XXX.X   ",
"   oooXX O+    +O    ++ .X...   ",
"  ooXXXX OO    @O    @O XXXXXX  ",
"  oXXXX. OO    +O    +O oXXXXX  ",
"  oXXXX. OO    @O    @O oXXXXX  ",
"  XXXX.. O+    @+    @+ ooXX.X  ",
"  oX.X..oO+++@@++++@@++OoXXX..  ",
"  X.X..ooO+OOOO++OOOO++OOXX...  ",
"  XooXX. OO    ++    +O  ooXX.  ",
"  XoXX.. OO    @O    @O ooXXXX  ",
"  XXXXX. OO    +O    +O oXXXXX  ",
"  XXXXX. OO    @O    @+ XXXXXX  ",
"  XoXXX. O+    @+    @O XoXXXX  ",
"  XoXXX.oO+++@@++++@@++OooXXXX  ",
"  XXXX..oO+OOOO++OOOO++OoXXXX.  ",
"  X..... O+    +O    +O  oX...  ",
"  XoooXX OO    +O    +O oXXXX.  ",
"  XooXXX OO    @+    @O oXXXXX  ",
"  XooXXX O+    @+    @+ oXXXXX  ",
"  XoXXX.oO+O  @++O  @++OooXXXX  ",
"  .oXXX. OO    OO    OO ooXXX.  ",
"  .XXXX. Oo    Oo    Oo ooXX..  ",
"   X...                  oo..   "
};
