/* XPM */
static char *eaa639fa7ad649c596f97292791d664bFjvogTrNmuw06tIR[] = {
/* columns rows colors chars-per-pixel */
"32 32 5 1 ",
"  c #A94B4B",
". c #FD9797",
"X c #DB7878",
"o c #C76262",
"O c white",
/* pixels */
"          ..XXXXXXoo            ",
"  ....   .XXXXXXXXXoo           ",
" ..XXoo  .XXXXXXXXXXo           ",
" ..XXoo  .XXXXXXXXXXo           ",
" ..XXoo  .XXXXXXXXXo            ",
"  ..oo   .XXXXXXooo   ...       ",
"  ...     oooooo    ........    ",
"                   ..XXXXXXo    ",
"    ..      ....   .XXXXXXXXo   ",
"  ...Xoo   ..XX..  .XXXXXXXXo   ",
"  .XXXXXo ..XXXX.. .XXXXXXXXXo  ",
" ..XXXXXo ..XXXXXo .XXXXXXXXXo  ",
" .XXXXXXo ..XXXXXo .XXXXXXXXXo  ",
" .XXXXXXXo .XXXXXo .XXXXXXXXXo  ",
" .XXXXXXXo ..XXXoo .XXXXXXXXXo  ",
" .XXXXXXXXo .XXXo  ..XXXXXXXXo  ",
" .XXXXXXXXo .oooo   .XXXXXXXo   ",
" .XXXXXXXXo         ..XXXXoo    ",
" .XXXXXXXXo   .....o ..XXoo     ",
" ..XXXXXXXo  ..XXXXoo ...oo..   ",
" ..XXXXXXXo ..XXXXXXoo ..o....  ",
" ..XXXXXXo ..XXXXXXXXo ....XXXo ",
"  .XXXXXo  .XXXXXXXXXo   .XXXXo ",
"  .XXXXo  ..XXXXXXXXXo   .XXXXo ",
"   oooo  .XXXXXXXXXXo    .XXXXo ",
"        ..XXXXXXXXoo  ..  .XXXo ",
"        .XXXXooooo  ..XXo .XXXo ",
"        .XXoo      .XXXXoo XXo  ",
"        .oo  ..... .XXXXXo  oo  ",
"             .XXX. .XXXXXo      ",
"             XXXoo    XX        ",
"                                "
};
