/* XPM */
static char *a36bbc489e3d498aff4b42979a9a20af9gKUmCAG3OJXZLvU[] = {
/* columns rows colors chars-per-pixel */
"32 32 6 1 ",
"  c None",
". c #353D30",
"X c #676F8F",
"o c #8B93AF",
"O c #B3B9D1",
"+ c #D1D6EE",
/* pixels */
"..+OOO.....OOOOO........OOOO..OO",
"..+OO......++O+..........OO..OOO",
"...O.........O..................",
".....................OOoo.......",
".......Ooo..........O++o........",
"......Oooo......O....oo.........",
"......Ooo......ooO..............",
".......o......ooO...............",
"...............O...........OX...",
"...........................OX...",
"....Ooo...................OoX...",
"...O+o.........O.OO........X....",
"...+oo.........O++oX............",
"...oo...........XXX.............",
".................X........oOo...",
".................X........OOoo..",
".........................Oooo...",
".........X........OO.......oo...",
"....O...XXo......+Ooo...........",
"...OoX...O+o....+ooo............",
"..OOXX...O+X.....o.o....O.......",
"...XX.....+.............Oo......",
"...o..................OOoo......",
"......................ooo.......",
"........O..............o....Oo..",
".......O+o......+O.........O.o..",
"...OO.O+o......O+oo.......Ooo...",
"...oO..o....o. .ooo......ooo. ..",
"...ooo.  ..Ooo  .o....  .oo... .",
"  ..o.  ..Ooo. ........   ... ..",
"   . . ....      .......  ..   .",
"       ......     ..... ....    "
};
