/* XPM */
static char *_64e7dc72e9e48b1ed99e7025e5833fb1Dx53mDdmoP8aKnt[] = {
/* columns rows colors chars-per-pixel */
"32 32 13 1 ",
"  c None",
". c #66333D",
"X c #372840",
"o c #3D3957",
"O c #57404E",
"+ c #524A63",
"@ c #911D55",
"# c #BF2651",
"$ c #997D76",
"% c #357985",
"& c #4C8F82",
"* c #78B392",
"= c #B5E0BA",
/* pixels */
"            XXXXXXXX            ",
"            XXXXXXXX            ",
"          XX##======XX          ",
"          XX##======XX          ",
"          XX********XX          ",
"          XX********XX          ",
"          XX&&oo**ooXX          ",
"          XX&&oo**ooXX          ",
"          XX%%&&&&&&XX          ",
"          XX%%&&&&&&XX          ",
"            XXooooXX##XX        ",
"            XXooooXX##XX        ",
"          XX$$XXXXOO##$$XX      ",
"          XX$$XXXXOO##$$XX      ",
"        XX$$OO....##OO$$XX      ",
"        XX$$OO....##OO$$XX      ",
"        XXXXOO..@@....OO$$XX    ",
"        XXXXOO..@@....OO$$XX    ",
"        XX##XX........XX**XX    ",
"        XX##XX........XX**XX    ",
"        XX@@XX....XXXX  XX      ",
"        XX@@XX....XXXX  XX      ",
"          XXXXXXXX$$XX          ",
"          XXXXXXXX$$XX          ",
"            XXooXX##XX          ",
"            XXooXX##XX          ",
"            XXooXX@@XX          ",
"            XXooXX@@XX          ",
"            XXooXXXX            ",
"            XXooXXXX            ",
"            XXoo++XXXX          ",
"            XXoo++XXXX          "
};
